<mxfile host="app.diagrams.net" agent="Mozilla/5.0 (Windows NT 10.0; Win64; x64) AppleWebKit/537.36 (KHTML, like Gecko) Chrome/138.0.0.0 Safari/537.36" version="27.2.0">
  <diagram id="diagram1" name="Scalable Architecture" compressed="true">
    <mxGraphModel dx="1426" dy="777" grid="1" gridSize="10" guides="1" tooltips="1" connect="1" arrows="1" fold="1" page="1" pageScale="1" pageWidth="850" pageHeight="1100" math="0" shadow="0">
      <root>
        <mxCell id="0" value="" />
        <mxCell id="1" value="" parent="0" />
        <mxCell id="2" value="CLI / Script" style="rounded=1;whiteSpace=wrap;html=1;" parent="1" vertex="1">
          <mxGeometry x="20" y="20" width="160" height="60" as="geometry" />
        </mxCell>
        <mxCell id="3" value="Streamlit UI" style="rounded=1;whiteSpace=wrap;html=1;" parent="1" vertex="1">
          <mxGeometry x="20" y="100" width="160" height="60" as="geometry" />
        </mxCell>
        <mxCell id="4" value="API Gateway" style="rounded=1;whiteSpace=wrap;html=1;" parent="1" vertex="1">
          <mxGeometry x="210" y="60" width="160" height="60" as="geometry" />
        </mxCell>
        <mxCell id="5" value="Lambda: Text Extraction" style="rounded=1;whiteSpace=wrap;html=1;" parent="1" vertex="1">
          <mxGeometry x="420" y="20" width="160" height="60" as="geometry" />
        </mxCell>
        <mxCell id="6" value="S3: Raw Documents" style="rounded=1;whiteSpace=wrap;html=1;" parent="1" vertex="1">
          <mxGeometry x="601" y="20" width="160" height="60" as="geometry" />
        </mxCell>
        <mxCell id="7" value="Lambda: Sentence Numbering" style="rounded=1;whiteSpace=wrap;html=1;" parent="1" vertex="1">
          <mxGeometry x="601" y="120" width="160" height="60" as="geometry" />
        </mxCell>
        <mxCell id="8" value="Lambda: Summarization &amp; Citation" style="rounded=1;whiteSpace=wrap;html=1;" parent="1" vertex="1">
          <mxGeometry x="601" y="220" width="160" height="60" as="geometry" />
        </mxCell>
        <mxCell id="9" value="S3: Summaries" style="rounded=1;whiteSpace=wrap;html=1;" parent="1" vertex="1">
          <mxGeometry x="811" y="220" width="160" height="60" as="geometry" />
        </mxCell>
        <mxCell id="10" value="OpenAI GPT-4o-mini (Managed)" style="rounded=1;whiteSpace=wrap;html=1;" parent="1" vertex="1">
          <mxGeometry x="481" y="400" width="160" height="60" as="geometry" />
        </mxCell>
        <mxCell id="11" value="ECS/EKS: Llama 3.2 Container" style="rounded=1;whiteSpace=wrap;html=1;" parent="1" vertex="1">
          <mxGeometry x="721" y="400" width="160" height="60" as="geometry" />
        </mxCell>
        <mxCell id="12" value="CloudFront CDN" style="rounded=1;whiteSpace=wrap;html=1;" parent="1" vertex="1">
          <mxGeometry x="1060" y="130" width="160" height="60" as="geometry" />
        </mxCell>
        <mxCell id="13" value="DynamoDB: Cache &amp; Evidence Map" style="rounded=1;whiteSpace=wrap;html=1;" parent="1" vertex="1">
          <mxGeometry x="1060" y="320" width="160" height="60" as="geometry" />
        </mxCell>
        <mxCell id="14" value="CloudWatch Logs &amp; Metrics" style="rounded=1;whiteSpace=wrap;html=1;" parent="1" vertex="1">
          <mxGeometry x="230" y="210" width="160" height="60" as="geometry" />
        </mxCell>
        <mxCell id="15" value="" parent="1" source="2" target="4" edge="1">
          <mxGeometry relative="1" as="geometry" />
        </mxCell>
        <mxCell id="16" value="" parent="1" source="3" target="4" edge="1">
          <mxGeometry relative="1" as="geometry" />
        </mxCell>
        <mxCell id="17" value="" parent="1" target="5" edge="1">
          <mxGeometry relative="1" as="geometry">
            <mxPoint x="371" y="73.15789473684208" as="sourcePoint" />
          </mxGeometry>
        </mxCell>
        <mxCell id="18" value="" parent="1" source="5" target="6" edge="1">
          <mxGeometry relative="1" as="geometry" />
        </mxCell>
        <mxCell id="19" value="" parent="1" source="6" target="7" edge="1">
          <mxGeometry relative="1" as="geometry" />
        </mxCell>
        <mxCell id="20" value="" parent="1" source="7" target="8" edge="1">
          <mxGeometry relative="1" as="geometry" />
        </mxCell>
        <mxCell id="21" value="" parent="1" source="8" target="9" edge="1">
          <mxGeometry relative="1" as="geometry" />
        </mxCell>
        <mxCell id="22" value="" parent="1" source="8" target="10" edge="1">
          <mxGeometry relative="1" as="geometry" />
        </mxCell>
        <mxCell id="23" value="" parent="1" source="8" target="11" edge="1">
          <mxGeometry relative="1" as="geometry" />
        </mxCell>
        <mxCell id="24" value="" parent="1" source="9" target="12" edge="1">
          <mxGeometry relative="1" as="geometry" />
        </mxCell>
        <mxCell id="25" value="" parent="1" source="9" target="13" edge="1">
          <mxGeometry relative="1" as="geometry" />
        </mxCell>
        <mxCell id="26" value="" parent="1" source="5" target="14" edge="1">
          <mxGeometry relative="1" as="geometry" />
        </mxCell>
        <mxCell id="27" value="" parent="1" source="7" target="14" edge="1">
          <mxGeometry relative="1" as="geometry" />
        </mxCell>
        <mxCell id="28" value="" style="entryX=1;entryY=0.75;entryDx=0;entryDy=0;" parent="1" source="8" target="14" edge="1">
          <mxGeometry relative="1" as="geometry">
            <mxPoint x="371" y="297.6923076923076" as="targetPoint" />
          </mxGeometry>
        </mxCell>
      </root>
    </mxGraphModel>
  </diagram>
</mxfile>
